RobotoSerifMicro-SuperWdith03ip.ufo
<glyph name="ampersand" format="2">
  <advance width="946"/>
  <unicode hex="0026"/>
  <outline>
    <contour>
      <point x="825" y="282" type="curve" smooth="yes"/>
      <point x="839" y="324"/>
      <point x="851" y="331"/>
      <point x="904" y="331" type="curve" smooth="yes"/>
      <point x="917" y="331" type="line"/>
      <point x="917" y="426" type="line"/>
      <point x="674" y="426" type="line"/>
      <point x="674" y="331" type="line"/>
      <point x="684" y="331" type="line" smooth="yes"/>
      <point x="714" y="331"/>
      <point x="736" y="327"/>
      <point x="736" y="321" type="curve" smooth="yes"/>
      <point x="736" y="212"/>
      <point x="593" y="88"/>
      <point x="442" y="88" type="curve" smooth="yes"/>
      <point x="328" y="88"/>
      <point x="262" y="126"/>
      <point x="262" y="225" type="curve" smooth="yes"/>
      <point x="262" y="291"/>
      <point x="275" y="343"/>
      <point x="311" y="388" type="curve"/>
      <point x="301" y="399" type="line"/>
      <point x="132" y="377"/>
      <point x="29" y="310"/>
      <point x="29" y="190" type="curve" smooth="yes"/>
      <point x="29" y="41.0"/>
      <point x="138" y="-10"/>
      <point x="360" y="-10" type="curve" smooth="yes"/>
      <point x="649" y="-10"/>
      <point x="780" y="148"/>
    </contour>
    <contour>
      <point x="924" y="0" type="line"/>
      <point x="924" y="95" type="line"/>
      <point x="902" y="95" type="line" smooth="yes"/>
      <point x="871" y="95"/>
      <point x="843" y="107"/>
      <point x="806" y="135" type="curve" smooth="yes"/>
      <point x="539" y="342"/>
      <point x="379" y="438"/>
      <point x="379" y="542" type="curve" smooth="yes"/>
      <point x="379.0" y="598.0"/>
      <point x="416" y="620"/>
      <point x="472" y="620" type="curve" smooth="yes"/>
      <point x="522.0" y="620.0"/>
      <point x="552" y="602"/>
      <point x="552" y="554" type="curve" smooth="yes"/>
      <point x="552" y="496"/>
      <point x="515" y="462"/>
      <point x="386" y="433" type="curve"/>
      <point x="406" y="385" type="line"/>
      <point x="629" y="424"/>
      <point x="743" y="457"/>
      <point x="743" y="576" type="curve" smooth="yes"/>
      <point x="743" y="664"/>
      <point x="646" y="718"/>
      <point x="476" y="718" type="curve" smooth="yes"/>
      <point x="311" y="718"/>
      <point x="183" y="662"/>
      <point x="183" y="529" type="curve" smooth="yes"/>
      <point x="183" y="367"/>
      <point x="420" y="209"/>
      <point x="687" y="0" type="curve"/>
    </contour>
  </outline>
</glyph>
<glyph name="zero" format="2">
  <advance width="680"/>
  <unicode hex="0030"/>
  <outline>
    <contour>
      <point x="340" y="-11" type="curve" smooth="yes"/>
      <point x="543" y="-11"/>
      <point x="646" y="87"/>
      <point x="646" y="319" type="curve" smooth="yes"/>
      <point x="646" y="551"/>
      <point x="543" y="649"/>
      <point x="340" y="649" type="curve" smooth="yes"/>
      <point x="137" y="649"/>
      <point x="34" y="551"/>
      <point x="34" y="319" type="curve" smooth="yes"/>
      <point x="34" y="87"/>
      <point x="137" y="-11"/>
    </contour>
    <contour>
      <point x="340" y="99" type="curve" smooth="yes"/>
      <point x="301" y="99"/>
      <point x="276" y="130"/>
      <point x="276" y="319" type="curve" smooth="yes"/>
      <point x="276" y="508"/>
      <point x="301" y="539"/>
      <point x="340" y="539" type="curve" smooth="yes"/>
      <point x="379" y="539"/>
      <point x="404" y="508"/>
      <point x="404" y="319" type="curve" smooth="yes"/>
      <point x="404" y="130"/>
      <point x="379" y="99"/>
    </contour>
  </outline>
</glyph>
<glyph name="one" format="2">
  <advance width="680"/>
  <unicode hex="0031"/>
  <outline>
    <contour>
      <point x="501" y="120" type="curve" smooth="yes"/>
      <point x="501" y="639.0" type="line"/>
      <point x="279" y="639.0" type="line"/>
      <point x="237.0" y="594"/>
      <point x="183" y="566"/>
      <point x="40" y="565" type="curve"/>
      <point x="40" y="430" type="line"/>
      <point x="163" y="429"/>
      <point x="232" y="452"/>
      <point x="262" y="564" type="curve"/>
      <point x="252" y="555"/>
      <point x="256" y="544"/>
      <point x="238" y="558" type="curve"/>
      <point x="238" y="103" type="line" smooth="yes"/>
      <point x="238.0" y="93.0"/>
      <point x="218" y="90"/>
      <point x="188" y="90" type="curve" smooth="yes"/>
      <point x="69" y="90" type="line"/>
      <point x="69" y="0.0" type="line"/>
      <point x="648" y="0.0" type="line"/>
      <point x="648" y="90" type="line"/>
      <point x="551" y="90" type="line" smooth="yes"/>
      <point x="521" y="90"/>
      <point x="501.0" y="100.0"/>
    </contour>
  </outline>
</glyph>
<glyph name="two" format="2">
  <advance width="680"/>
  <unicode hex="0032"/>
  <outline>
    <contour>
      <point x="381" y="180" type="line" smooth="yes"/>
      <point x="476" y="180"/>
      <point x="510" y="179"/>
      <point x="517" y="216" type="curve" smooth="yes"/>
      <point x="527" y="266.0" type="line"/>
      <point x="636" y="266.0" type="line"/>
      <point x="636" y="0.0" type="line"/>
      <point x="47" y="0.0" type="line"/>
      <point x="47" y="199" type="line"/>
      <point x="280" y="306"/>
      <point x="372" y="340"/>
      <point x="372" y="460" type="curve" smooth="yes"/>
      <point x="372" y="514"/>
      <point x="347" y="539"/>
      <point x="292" y="539" type="curve" smooth="yes"/>
      <point x="236" y="539"/>
      <point x="196" y="516"/>
      <point x="162" y="494" type="curve"/>
      <point x="154" y="521"/>
      <point x="174" y="565"/>
      <point x="220" y="569" type="curve"/>
      <point x="220" y="404" type="line"/>
      <point x="50" y="404" type="line"/>
      <point x="50" y="575" type="line"/>
      <point x="98" y="605"/>
      <point x="209" y="649.0"/>
      <point x="349" y="649.0" type="curve" smooth="yes"/>
      <point x="545.0" y="649.0"/>
      <point x="622" y="586"/>
      <point x="622" y="477" type="curve" smooth="yes"/>
      <point x="622" y="308"/>
      <point x="394" y="256.0"/>
      <point x="118" y="152" type="curve"/>
      <point x="94" y="167"/>
      <point x="67" y="162"/>
      <point x="95" y="180" type="curve"/>
    </contour>
  </outline>
</glyph>
<glyph name="five" format="2">
  <advance width="680"/>
  <unicode hex="0035"/>
  <outline>
    <contour>
      <point x="316" y="-90.0" type="curve" smooth="yes"/>
      <point x="159" y="-90"/>
      <point x="67" y="-46"/>
      <point x="20" y="49" type="curve"/>
      <point x="126" y="118" type="line"/>
      <point x="165" y="49"/>
      <point x="211" y="20"/>
      <point x="275" y="20" type="curve" smooth="yes"/>
      <point x="348.0" y="20.0"/>
      <point x="385" y="60"/>
      <point x="385" y="160" type="curve" smooth="yes"/>
      <point x="385" y="244"/>
      <point x="354" y="275"/>
      <point x="301" y="275.0" type="curve" smooth="yes"/>
      <point x="250" y="275"/>
      <point x="217" y="253"/>
      <point x="195" y="208" type="curve"/>
      <point x="93" y="208" type="line"/>
      <point x="93" y="639.0" type="line"/>
      <point x="578" y="639.0" type="line"/>
      <point x="560" y="469" type="line"/>
      <point x="154" y="469" type="line"/>
      <point x="205" y="569.0" type="line"/>
      <point x="205" y="293" type="line"/>
      <point x="199" y="278"/>
      <point x="188" y="274"/>
      <point x="179" y="284" type="curve"/>
      <point x="207" y="339"/>
      <point x="284" y="390.0"/>
      <point x="391" y="390.0" type="curve" smooth="yes"/>
      <point x="548" y="390"/>
      <point x="634" y="314"/>
      <point x="634" y="164" type="curve" smooth="yes"/>
      <point x="634" y="-12"/>
      <point x="521" y="-90"/>
    </contour>
  </outline>
</glyph>
<glyph name="question" format="2">
  <advance width="828"/>
  <unicode hex="003F"/>
  <outline>
    <contour>
      <point x="305" y="445.0" type="line"/>
      <point x="424" y="461.0"/>
      <point x="495" y="492"/>
      <point x="495" y="578.0" type="curve" smooth="yes"/>
      <point x="495" y="646"/>
      <point x="456" y="669"/>
      <point x="391" y="669.0" type="curve" smooth="yes"/>
      <point x="335" y="669"/>
      <point x="288" y="658"/>
      <point x="252" y="641" type="curve"/>
      <point x="245" y="654"/>
      <point x="252" y="673.0"/>
      <point x="277" y="693.0" type="curve"/>
      <point x="277" y="531.0" type="line"/>
      <point x="97" y="531.0" type="line"/>
      <point x="97" y="696.0" type="line"/>
      <point x="195" y="733.0"/>
      <point x="312" y="762"/>
      <point x="454" y="762.0" type="curve" smooth="yes"/>
      <point x="656" y="762"/>
      <point x="771" y="716"/>
      <point x="771" y="589.0" type="curve" smooth="yes"/>
      <point x="771" y="462"/>
      <point x="656" y="418.0"/>
      <point x="503" y="400.0" type="curve"/>
      <point x="503" y="273" type="line"/>
      <point x="305" y="273" type="line"/>
    </contour>
    <component base="period" xOffset="148" yOffset="-1"/>
  </outline>
</glyph>
<glyph name="bar" format="2">
  <advance width="389"/>
  <unicode hex="007C"/>
  <outline>
    <contour>
      <point x="131" y="780" type="line"/>
      <point x="131" y="-158" type="line"/>
      <point x="258" y="-158" type="line"/>
      <point x="258" y="780" type="line"/>
    </contour>
  </outline>
</glyph>
<glyph name="OE" format="2">
  <advance width="1281"/>
  <unicode hex="0152"/>
  <anchor x="733" y="741" name="top"/>
  <outline>
    <contour>
      <point x="474" y="98" type="line" smooth="yes"/>
      <point x="352" y="98"/>
      <point x="297" y="168"/>
      <point x="297" y="351" type="curve" smooth="yes"/>
      <point x="297" y="534"/>
      <point x="352" y="612"/>
      <point x="474" y="612" type="curve" smooth="yes"/>
      <point x="570" y="612" type="line"/>
      <point x="570" y="98" type="line"/>
    </contour>
    <contour>
      <point x="834" y="408" type="curve"/>
      <point x="834" y="322" type="line"/>
      <point x="927" y="313"/>
      <point x="1018" y="306"/>
      <point x="1111" y="298" type="curve"/>
      <point x="1111" y="433" type="line"/>
      <point x="1018" y="425"/>
      <point x="927" y="417"/>
    </contour>
    <contour>
      <point x="1225" y="0" type="line"/>
      <point x="1225" y="224" type="line"/>
      <point x="1113" y="224" type="line"/>
      <point x="1095" y="143" type="line" smooth="yes"/>
      <point x="1088" y="107"/>
      <point x="1058" y="98"/>
      <point x="974" y="98" type="curve" smooth="yes"/>
      <point x="850" y="98" type="line"/>
      <point x="850" y="612" type="line"/>
      <point x="983" y="612" type="line" smooth="yes"/>
      <point x="1046" y="612"/>
      <point x="1081" y="603"/>
      <point x="1087" y="567" type="curve" smooth="yes"/>
      <point x="1098" y="511" type="line"/>
      <point x="1208" y="511" type="line"/>
      <point x="1208" y="710" type="line"/>
      <point x="441" y="710" type="line" smooth="yes"/>
      <point x="212" y="710"/>
      <point x="53" y="598"/>
      <point x="53" y="351" type="curve" smooth="yes"/>
      <point x="53" y="103"/>
      <point x="212" y="0"/>
      <point x="441" y="0" type="curve" smooth="yes"/>
    </contour>
  </outline>
</glyph>
<glyph name="tbar" format="2">
  <advance width="685"/>
  <unicode hex="0167"/>
  <outline>
    <contour>
      <point x="53" y="259" type="line"/>
      <point x="565" y="259" type="line"/>
      <point x="565" y="359" type="line"/>
      <point x="53" y="359" type="line"/>
    </contour>
    <component base="t"/>
  </outline>
</glyph>
<glyph name="dotaccent" format="2">
  <advance width="538"/>
  <unicode hex="02D9"/>
  <anchor x="268.0" y="571" name="_top"/>
  <outline>
    <contour>
      <point x="269.0" y="623" type="curve" smooth="yes"/>
      <point x="347.0" y="623"/>
      <point x="393.0" y="658"/>
      <point x="393.0" y="730" type="curve" smooth="yes"/>
      <point x="393.0" y="801"/>
      <point x="347.0" y="837"/>
      <point x="269.0" y="837" type="curve" smooth="yes"/>
      <point x="190.0" y="837"/>
      <point x="143.0" y="801"/>
      <point x="143.0" y="730" type="curve" smooth="yes"/>
      <point x="143.0" y="657"/>
      <point x="190.0" y="623"/>
    </contour>
  </outline>
</glyph>
<glyph name="Omega" format="2">
  <advance width="1003"/>
  <unicode hex="03A9"/>
  <outline>
    <contour>
      <point x="502" y="735" type="curve" smooth="yes"/>
      <point x="805" y="735"/>
      <point x="906" y="606"/>
      <point x="906" y="470" type="curve" smooth="yes"/>
      <point x="906.0" y="320.0"/>
      <point x="778" y="257"/>
      <point x="591" y="113" type="curve"/>
      <point x="577" y="157" type="line"/>
      <point x="715" y="157" type="line" smooth="yes"/>
      <point x="799" y="157"/>
      <point x="829" y="159"/>
      <point x="836" y="195" type="curve" smooth="yes"/>
      <point x="846" y="246" type="line"/>
      <point x="935" y="246" type="line"/>
      <point x="935" y="0" type="line"/>
      <point x="556" y="0" type="line"/>
      <point x="556" y="179" type="line"/>
      <point x="641" y="286"/>
      <point x="694" y="332"/>
      <point x="694" y="455" type="curve" smooth="yes"/>
      <point x="694" y="557"/>
      <point x="640" y="631"/>
      <point x="502" y="631" type="curve" smooth="yes"/>
      <point x="364" y="631"/>
      <point x="309" y="557"/>
      <point x="309" y="455" type="curve" smooth="yes"/>
      <point x="309" y="322"/>
      <point x="362" y="286"/>
      <point x="447" y="179" type="curve"/>
      <point x="447" y="0" type="line"/>
      <point x="68" y="0" type="line"/>
      <point x="68" y="246" type="line"/>
      <point x="157" y="246" type="line"/>
      <point x="168" y="195" type="line" smooth="yes"/>
      <point x="174" y="159"/>
      <point x="204" y="157"/>
      <point x="288" y="157" type="curve" smooth="yes"/>
      <point x="426" y="157" type="line"/>
      <point x="413" y="113" type="line"/>
      <point x="225" y="257"/>
      <point x="98" y="320"/>
      <point x="98" y="470" type="curve" smooth="yes"/>
      <point x="98" y="606.0"/>
      <point x="198" y="735"/>
    </contour>
  </outline>
</glyph>
<glyph name="pi" format="2">
  <advance width="981"/>
  <unicode hex="03C0"/>
  <outline>
    <contour>
      <point x="426" y="0" type="line"/>
      <point x="426" y="440" type="line"/>
      <point x="310" y="440" type="line"/>
      <point x="300" y="170"/>
      <point x="235" y="184"/>
      <point x="235" y="0" type="curve"/>
    </contour>
    <contour>
      <point x="928" y="396" type="line"/>
      <point x="928" y="532" type="line"/>
      <point x="280" y="532" type="line" smooth="yes"/>
      <point x="114" y="532"/>
      <point x="56" y="415"/>
      <point x="33" y="281" type="curve"/>
      <point x="126" y="262" type="line"/>
      <point x="148" y="352"/>
      <point x="177" y="396"/>
      <point x="268" y="396" type="curve" smooth="yes"/>
    </contour>
    <contour>
      <point x="745" y="174" type="curve" smooth="yes"/>
      <point x="745" y="440" type="line"/>
      <point x="628" y="440" type="line"/>
      <point x="618" y="234"/>
      <point x="560" y="206"/>
      <point x="560" y="118" type="curve" smooth="yes"/>
      <point x="560" y="24"/>
      <point x="629" y="-10"/>
      <point x="734" y="-10" type="curve" smooth="yes"/>
      <point x="855" y="-10"/>
      <point x="921" y="58"/>
      <point x="949" y="175" type="curve"/>
      <point x="867" y="198" type="line"/>
      <point x="853" y="156"/>
      <point x="829" y="128"/>
      <point x="794" y="128" type="curve" smooth="yes"/>
      <point x="767" y="128"/>
      <point x="745" y="138"/>
    </contour>
  </outline>
</glyph>
<glyph name="Germandbls" format="2">
  <advance width="980"/>
  <unicode hex="1E9E"/>
  <outline>
    <contour>
      <point x="619" y="92" type="curve" smooth="yes"/>
      <point x="558.0" y="92"/>
      <point x="542" y="142"/>
      <point x="532" y="217" type="curve"/>
      <point x="413" y="217" type="line"/>
      <point x="413" y="0" type="line"/>
      <point x="511" y="0" type="line"/>
      <point x="529" y="85" type="line"/>
      <point x="518" y="119"/>
      <point x="505" y="172"/>
      <point x="473" y="172" type="curve"/>
      <point x="507" y="39"/>
      <point x="567" y="-14"/>
      <point x="712" y="-14" type="curve" smooth="yes"/>
      <point x="869.0" y="-14.0"/>
      <point x="942" y="59"/>
      <point x="942" y="182" type="curve" smooth="yes"/>
      <point x="942" y="301"/>
      <point x="856" y="354"/>
      <point x="655" y="418" type="curve"/>
      <point x="689" y="324" type="line"/>
      <point x="894" y="568" type="line"/>
      <point x="894" y="710" type="line"/>
      <point x="392" y="710" type="line" smooth="yes"/>
      <point x="146" y="710"/>
      <point x="59" y="613"/>
      <point x="59" y="472" type="curve" smooth="yes"/>
      <point x="59" y="136" type="line" smooth="yes"/>
      <point x="59.0" y="113.0"/>
      <point x="36.0" y="105.0"/>
      <point x="9" y="105" type="curve" smooth="yes"/>
      <point x="-16" y="105" type="line"/>
      <point x="-16" y="0" type="line"/>
      <point x="338" y="0" type="line"/>
      <point x="338" y="464" type="line" smooth="yes"/>
      <point x="338" y="563"/>
      <point x="362" y="606"/>
      <point x="493" y="606" type="curve" smooth="yes"/>
      <point x="698" y="606" type="line"/>
      <point x="697" y="612"/>
      <point x="691" y="652"/>
      <point x="683" y="649" type="curve"/>
      <point x="518" y="448" type="line"/>
      <point x="518" y="355" type="line"/>
      <point x="643" y="308"/>
      <point x="691" y="277"/>
      <point x="691" y="189" type="curve" smooth="yes"/>
      <point x="691" y="120"/>
      <point x="663" y="92"/>
    </contour>
  </outline>
</glyph>
<glyph name="peseta" format="2">
  <advance width="680"/>
  <unicode hex="20A7"/>
  <outline>
    <contour>
      <point x="15" y="0" type="line"/>
      <point x="261" y="0" type="line"/>
      <point x="261" y="105" type="line"/>
      <point x="239" y="105" type="line" smooth="yes"/>
      <point x="220" y="105"/>
      <point x="193.0" y="108.0"/>
      <point x="193" y="115" type="curve" smooth="yes"/>
      <point x="193" y="222" type="line"/>
      <point x="209" y="222" type="line" smooth="yes"/>
      <point x="360.0" y="222.0"/>
      <point x="419" y="325"/>
      <point x="419" y="472" type="curve" smooth="yes"/>
      <point x="419" y="619"/>
      <point x="358" y="710"/>
      <point x="209" y="710" type="curve" smooth="yes"/>
      <point x="15" y="710" type="line"/>
      <point x="15" y="605" type="line"/>
      <point x="31" y="605" type="line" smooth="yes"/>
      <point x="55" y="605"/>
      <point x="62.0" y="598.0"/>
      <point x="62" y="569" type="curve" smooth="yes"/>
      <point x="62" y="141" type="line" smooth="yes"/>
      <point x="62" y="112"/>
      <point x="55" y="105"/>
      <point x="31" y="105" type="curve" smooth="yes"/>
      <point x="15" y="105" type="line"/>
    </contour>
    <contour>
      <point x="210" y="605" type="line" smooth="yes"/>
      <point x="262" y="605"/>
      <point x="293" y="587"/>
      <point x="293" y="471" type="curve" smooth="yes"/>
      <point x="293" y="355"/>
      <point x="267" y="327"/>
      <point x="211" y="327" type="curve" smooth="yes"/>
      <point x="193" y="327" type="line"/>
      <point x="193" y="605" type="line"/>
    </contour>
    <contour>
      <point x="507" y="555" type="line"/>
      <point x="453" y="539" type="line"/>
      <point x="453" y="95" type="line" smooth="yes"/>
      <point x="453.0" y="13.0"/>
      <point x="498" y="-12"/>
      <point x="570" y="-12" type="curve" smooth="yes"/>
      <point x="603" y="-12"/>
      <point x="629" y="-10"/>
      <point x="647" y="-7" type="curve"/>
      <point x="647" y="89" type="line"/>
      <point x="643" y="89"/>
      <point x="635" y="87"/>
      <point x="623" y="87" type="curve" smooth="yes"/>
      <point x="603" y="87"/>
      <point x="591.0" y="91.0"/>
      <point x="591" y="111" type="curve" smooth="yes"/>
      <point x="591" y="710" type="line"/>
      <point x="469" y="710" type="line"/>
      <point x="469" y="614" type="line" smooth="yes"/>
      <point x="469.0" y="553.0"/>
      <point x="454" y="542"/>
      <point x="415" y="542" type="curve" smooth="yes"/>
      <point x="390" y="542" type="line"/>
      <point x="390" y="460" type="line"/>
      <point x="650" y="460" type="line"/>
      <point x="650" y="555" type="line"/>
    </contour>
  </outline>
</glyph>
<glyph name="uni20B8" format="2">
  <advance width="680"/>
  <unicode hex="20B8"/>
  <outline>
    <contour>
      <point x="27" y="751" type="line"/>
      <point x="27" y="649" type="line"/>
      <point x="653" y="649" type="line"/>
      <point x="653" y="751" type="line"/>
    </contour>
    <contour>
      <point x="247" y="137" type="line" smooth="yes"/>
      <point x="247" y="108"/>
      <point x="218" y="101"/>
      <point x="184" y="101" type="curve" smooth="yes"/>
      <point x="155" y="101" type="line"/>
      <point x="155" y="0" type="line"/>
      <point x="526" y="0" type="line"/>
      <point x="526" y="101" type="line"/>
      <point x="496" y="101" type="line" smooth="yes"/>
      <point x="463" y="101"/>
      <point x="434" y="108"/>
      <point x="434" y="137" type="curve" smooth="yes"/>
      <point x="434" y="454" type="line"/>
      <point x="470" y="454" type="line" smooth="yes"/>
      <point x="533.0" y="454.0"/>
      <point x="542" y="437"/>
      <point x="546" y="401" type="curve" smooth="yes"/>
      <point x="558" y="292" type="line"/>
      <point x="650" y="292" type="line"/>
      <point x="650" y="547" type="line"/>
      <point x="30" y="547" type="line"/>
      <point x="30" y="292" type="line"/>
      <point x="122" y="292" type="line"/>
      <point x="134" y="401" type="line" smooth="yes"/>
      <point x="138" y="437"/>
      <point x="148.0" y="454.0"/>
      <point x="211" y="454" type="curve" smooth="yes"/>
      <point x="247" y="454" type="line"/>
    </contour>
  </outline>
</glyph>
<glyph name="servicemark" format="2">
  <advance width="1472"/>
  <unicode hex="2120"/>
  <outline>
    <contour>
      <point x="665" y="238" type="line"/>
      <point x="851" y="238" type="line"/>
      <point x="851" y="318" type="line"/>
      <point x="848" y="318" type="line" smooth="yes"/>
      <point x="834" y="318"/>
      <point x="810.0" y="321.0"/>
      <point x="810" y="324" type="curve" smooth="yes"/>
      <point x="810" y="705" type="line"/>
      <point x="785" y="706" type="line"/>
      <point x="941" y="236" type="line"/>
      <point x="1063" y="236" type="line"/>
      <point x="1214" y="706" type="line"/>
      <point x="1189" y="704" type="line"/>
      <point x="1189" y="324" type="line" smooth="yes"/>
      <point x="1189.0" y="321.0"/>
      <point x="1167" y="318"/>
      <point x="1151" y="318" type="curve" smooth="yes"/>
      <point x="1145" y="318" type="line"/>
      <point x="1145" y="238" type="line"/>
      <point x="1396" y="238" type="line"/>
      <point x="1396" y="318" type="line"/>
      <point x="1384" y="318" type="line" smooth="yes"/>
      <point x="1356" y="318"/>
      <point x="1340" y="323"/>
      <point x="1340" y="338" type="curve" smooth="yes"/>
      <point x="1340" y="608" type="line" smooth="yes"/>
      <point x="1340.0" y="625.0"/>
      <point x="1356" y="629"/>
      <point x="1384" y="629" type="curve" smooth="yes"/>
      <point x="1396" y="629" type="line"/>
      <point x="1396" y="710" type="line"/>
      <point x="1131" y="710" type="line"/>
      <point x="996" y="286" type="line"/>
      <point x="1067" y="291" type="line"/>
      <point x="931" y="710" type="line"/>
      <point x="665" y="710" type="line"/>
      <point x="665" y="629" type="line"/>
      <point x="676" y="629" type="line" smooth="yes"/>
      <point x="704" y="629"/>
      <point x="722.0" y="625.0"/>
      <point x="722" y="608" type="curve" smooth="yes"/>
      <point x="722" y="338" type="line" smooth="yes"/>
      <point x="722" y="323"/>
      <point x="704" y="318"/>
      <point x="676" y="318" type="curve" smooth="yes"/>
      <point x="665" y="318" type="line"/>
    </contour>
    <contour>
      <point x="369" y="306" type="curve" smooth="yes"/>
      <point x="291" y="306"/>
      <point x="240" y="320"/>
      <point x="220" y="389" type="curve"/>
      <point x="140" y="389" type="line"/>
      <point x="140" y="230" type="line"/>
      <point x="213" y="230" type="line"/>
      <point x="226" y="332" type="line"/>
      <point x="229" y="352"/>
      <point x="199" y="354"/>
      <point x="193" y="366" type="curve"/>
      <point x="198" y="272"/>
      <point x="278" y="227"/>
      <point x="385" y="227" type="curve" smooth="yes"/>
      <point x="509" y="227"/>
      <point x="590" y="276"/>
      <point x="590" y="388" type="curve" smooth="yes"/>
      <point x="590" y="483"/>
      <point x="523" y="513"/>
      <point x="419" y="535" type="curve" smooth="yes"/>
      <point x="331" y="554"/>
      <point x="280" y="558"/>
      <point x="280" y="600" type="curve" smooth="yes"/>
      <point x="280.0" y="628.0"/>
      <point x="304" y="641"/>
      <point x="360" y="641" type="curve" smooth="yes"/>
      <point x="417" y="641"/>
      <point x="466" y="630"/>
      <point x="483" y="578" type="curve"/>
      <point x="561" y="578" type="line"/>
      <point x="561" y="720" type="line"/>
      <point x="489" y="720" type="line"/>
      <point x="476" y="636" type="line"/>
      <point x="473" y="612"/>
      <point x="503" y="609"/>
      <point x="508" y="602" type="curve"/>
      <point x="502" y="679"/>
      <point x="437" y="721"/>
      <point x="340" y="721" type="curve" smooth="yes"/>
      <point x="218" y="721"/>
      <point x="151" y="666"/>
      <point x="151" y="573" type="curve" smooth="yes"/>
      <point x="151" y="470"/>
      <point x="226" y="444"/>
      <point x="311" y="426" type="curve" smooth="yes"/>
      <point x="421" y="403"/>
      <point x="457" y="395"/>
      <point x="457" y="354" type="curve" smooth="yes"/>
      <point x="457.0" y="321.0"/>
      <point x="428" y="306"/>
    </contour>
  </outline>
</glyph>
<glyph name="uni25B9" format="2">
  <advance width="616"/>
  <unicode hex="25B9"/>
  <outline>
    <contour>
      <point x="138" y="535" type="line"/>
      <point x="138" y="20" type="line"/>
      <point x="533" y="277" type="line"/>
    </contour>
    <contour>
      <point x="196" y="450" type="line"/>
      <point x="179" y="443" type="line"/>
      <point x="449" y="272" type="line"/>
      <point x="449" y="283" type="line"/>
      <point x="179" y="112" type="line"/>
      <point x="196" y="105" type="line"/>
    </contour>
  </outline>
</glyph>
<glyph name="acute.uc" format="2">
  <advance width="538"/>
  <anchor x="209" y="740" name="_top"/>
  <outline>
    <contour>
      <point x="266" y="928" type="curve" smooth="yes"/>
      <point x="153" y="823" type="line"/>
      <point x="153" y="778" type="line"/>
      <point x="209" y="778" type="line"/>
      <point x="371" y="807" type="line" smooth="yes"/>
      <point x="464" y="824"/>
      <point x="517" y="859"/>
      <point x="517" y="922" type="curve" smooth="yes"/>
      <point x="517" y="977"/>
      <point x="479" y="1016"/>
      <point x="418" y="1016" type="curve" smooth="yes"/>
      <point x="356" y="1016"/>
      <point x="316" y="975"/>
    </contour>
  </outline>
</glyph>
<glyph name="at.uc" format="2">
  <advance width="1092"/>
  <outline>
    <contour>
      <point x="538" y="28" type="curve" smooth="yes"/>
      <point x="304" y="28"/>
      <point x="182" y="141"/>
      <point x="182" y="340" type="curve" smooth="yes"/>
      <point x="182" y="569"/>
      <point x="350" y="687"/>
      <point x="599" y="687" type="curve" smooth="yes"/>
      <point x="822" y="687"/>
      <point x="919" y="614"/>
      <point x="919" y="450" type="curve" smooth="yes"/>
      <point x="919" y="280"/>
      <point x="878" y="236"/>
      <point x="799" y="236" type="curve" smooth="yes"/>
      <point x="752" y="236"/>
      <point x="743" y="255"/>
      <point x="753" y="296" type="curve"/>
      <point x="812" y="568" type="line"/>
      <point x="697" y="568" type="line"/>
      <point x="642" y="472" type="line"/>
      <point x="634" y="481" type="line"/>
      <point x="584" y="251" type="line"/>
      <point x="591" y="255" type="line"/>
      <point x="638" y="192"/>
      <point x="692" y="155"/>
      <point x="793" y="155" type="curve" smooth="yes"/>
      <point x="947" y="155"/>
      <point x="1039" y="264"/>
      <point x="1039" y="455" type="curve" smooth="yes"/>
      <point x="1039" y="669"/>
      <point x="898" y="781"/>
      <point x="599" y="781" type="curve" smooth="yes"/>
      <point x="283" y="781"/>
      <point x="62" y="625"/>
      <point x="62" y="340" type="curve" smooth="yes"/>
      <point x="62" y="73"/>
      <point x="235" y="-66"/>
      <point x="538" y="-66" type="curve" smooth="yes"/>
      <point x="658" y="-66"/>
      <point x="784" y="-38"/>
      <point x="857" y="-8" type="curve"/>
      <point x="827" y="82" type="line"/>
      <point x="767" y="59"/>
      <point x="660" y="28"/>
    </contour>
    <contour>
      <point x="464" y="149" type="curve" smooth="yes"/>
      <point x="547" y="149"/>
      <point x="577" y="185"/>
      <point x="641" y="281" type="curve"/>
      <point x="602" y="314" type="line"/>
      <point x="571" y="261"/>
      <point x="545" y="221"/>
      <point x="507" y="221" type="curve" smooth="yes"/>
      <point x="475" y="221"/>
      <point x="466" y="226"/>
      <point x="466" y="273" type="curve" smooth="yes"/>
      <point x="466" y="398"/>
      <point x="501" y="502"/>
      <point x="573" y="502" type="curve" smooth="yes"/>
      <point x="622" y="502"/>
      <point x="627" y="467"/>
      <point x="641" y="367" type="curve"/>
      <point x="673" y="431" type="line"/>
      <point x="663" y="517"/>
      <point x="638" y="574"/>
      <point x="542" y="574" type="curve" smooth="yes"/>
      <point x="399" y="574"/>
      <point x="301" y="445"/>
      <point x="301" y="293" type="curve" smooth="yes"/>
      <point x="301" y="188"/>
      <point x="370" y="149"/>
    </contour>
  </outline>
</glyph>
<glyph name="breve_hook" format="2">
  <advance width="539"/>
  <anchor x="274.5" y="571" name="_top"/>
  <outline>
    <contour>
      <point x="61" y="1003" type="line"/>
      <point x="69" y="1094"/>
      <point x="156" y="1134"/>
      <point x="281" y="1134" type="curve" smooth="yes"/>
      <point x="417" y="1134"/>
      <point x="498" y="1105"/>
      <point x="498" y="1019" type="curve" smooth="yes"/>
      <point x="498" y="918"/>
      <point x="398" y="900"/>
      <point x="265" y="897" type="curve"/>
      <point x="335" y="947" type="line"/>
      <point x="335" y="854" type="line"/>
      <point x="215" y="854" type="line"/>
      <point x="215" y="948" type="line"/>
      <point x="303" y="951"/>
      <point x="354" y="959"/>
      <point x="354" y="1008" type="curve" smooth="yes"/>
      <point x="354" y="1040"/>
      <point x="320" y="1053"/>
      <point x="279" y="1053" type="curve" smooth="yes"/>
      <point x="235" y="1053"/>
      <point x="203" y="1037"/>
      <point x="198" y="1003" type="curve"/>
    </contour>
    <contour>
      <point x="274.0" y="621" type="curve" smooth="yes"/>
      <point x="129.0" y="621"/>
      <point x="48.0" y="696"/>
      <point x="39.0" y="843" type="curve"/>
      <point x="149.0" y="843" type="line"/>
      <point x="162.0" y="789"/>
      <point x="200.0" y="768"/>
      <point x="278.0" y="768" type="curve" smooth="yes"/>
      <point x="356.0" y="768"/>
      <point x="392.0" y="789"/>
      <point x="406.0" y="843" type="curve"/>
      <point x="510.0" y="843" type="line"/>
      <point x="501.0" y="696"/>
      <point x="420.0" y="621"/>
    </contour>
  </outline>
</glyph>
<glyph name="breve_tilde" format="2">
  <advance width="538"/>
  <anchor x="278.5" y="571" name="_top"/>
  <outline>
    <contour>
      <point x="372.0" y="885" type="curve" smooth="yes"/>
      <point x="473.0" y="885"/>
      <point x="518.0" y="947"/>
      <point x="539.0" y="1102" type="curve"/>
      <point x="448.0" y="1114" type="line"/>
      <point x="434.0" y="1050"/>
      <point x="420.0" y="1025"/>
      <point x="385.0" y="1025" type="curve" smooth="yes"/>
      <point x="330.0" y="1025"/>
      <point x="293.0" y="1109"/>
      <point x="185.0" y="1109" type="curve" smooth="yes"/>
      <point x="76.0" y="1109"/>
      <point x="37.0" y="1037"/>
      <point x="18.0" y="896" type="curve"/>
      <point x="110.0" y="884" type="line"/>
      <point x="122.0" y="947"/>
      <point x="134.0" y="971"/>
      <point x="170.0" y="971" type="curve" smooth="yes"/>
      <point x="220.0" y="971"/>
      <point x="255.0" y="885"/>
    </contour>
    <contour>
      <point x="278.0" y="621" type="curve" smooth="yes"/>
      <point x="133.0" y="621"/>
      <point x="52.0" y="696"/>
      <point x="43.0" y="832" type="curve"/>
      <point x="153.0" y="832" type="line"/>
      <point x="166.0" y="789"/>
      <point x="204.0" y="768"/>
      <point x="282.0" y="768" type="curve" smooth="yes"/>
      <point x="360.0" y="768"/>
      <point x="396.0" y="789"/>
      <point x="410.0" y="832" type="curve"/>
      <point x="514.0" y="832" type="line"/>
      <point x="505.0" y="696"/>
      <point x="424.0" y="621"/>
    </contour>
  </outline>
</glyph>
<glyph name="circumflex_grave.uc" format="2">
  <advance width="545"/>
  <anchor x="268.5" y="740" name="_top"/>
  <outline>
    <contour>
      <point x="630" y="1089" type="line" smooth="yes"/>
      <point x="587" y="1147"/>
      <point x="550" y="1189"/>
      <point x="487" y="1189" type="curve" smooth="yes"/>
      <point x="428" y="1189"/>
      <point x="388" y="1152"/>
      <point x="388" y="1097" type="curve" smooth="yes"/>
      <point x="388" y="1038"/>
      <point x="423" y="1005"/>
      <point x="526" y="969" type="curve" smooth="yes"/>
      <point x="665" y="920" type="line"/>
      <point x="722" y="920" type="line"/>
      <point x="722" y="965" type="line"/>
    </contour>
    <component base="circumflex.uc"/>
  </outline>
</glyph>
<glyph name="circumflex_hook" format="2">
  <advance width="581"/>
  <anchor x="269.0" y="571" name="_top"/>
  <outline>
    <contour>
      <point x="358" y="937" type="line"/>
      <point x="367" y="1017"/>
      <point x="444" y="1069"/>
      <point x="577" y="1069" type="curve" smooth="yes"/>
      <point x="691.0" y="1069.0"/>
      <point x="773" y="1034"/>
      <point x="773" y="950" type="curve" smooth="yes"/>
      <point x="773" y="852"/>
      <point x="673" y="827"/>
      <point x="552" y="824" type="curve"/>
      <point x="621" y="875" type="line"/>
      <point x="621" y="780" type="line"/>
      <point x="503" y="780" type="line"/>
      <point x="503" y="883" type="line"/>
      <point x="589" y="886"/>
      <point x="629" y="900"/>
      <point x="629" y="941" type="curve" smooth="yes"/>
      <point x="629" y="972"/>
      <point x="606" y="986"/>
      <point x="565" y="986" type="curve" smooth="yes"/>
      <point x="522" y="986"/>
      <point x="500" y="973"/>
      <point x="495" y="937" type="curve"/>
    </contour>
    <component base="circumflex"/>
  </outline>
</glyph>
<glyph name="circumflex_hook.uc" format="2">
  <advance width="543"/>
  <anchor x="268.5" y="740" name="_top"/>
  <outline>
    <contour>
      <point x="349" y="1054" type="line"/>
      <point x="357" y="1147"/>
      <point x="448" y="1191"/>
      <point x="581" y="1191" type="curve" smooth="yes"/>
      <point x="727" y="1191"/>
      <point x="811" y="1155"/>
      <point x="811" y="1066" type="curve" smooth="yes"/>
      <point x="811" y="964"/>
      <point x="699" y="938"/>
      <point x="563" y="935" type="curve"/>
      <point x="639" y="988" type="line"/>
      <point x="639" y="888" type="line"/>
      <point x="512" y="888" type="line"/>
      <point x="512" y="995" type="line"/>
      <point x="625" y="998"/>
      <point x="657" y="1016"/>
      <point x="657" y="1058" type="curve" smooth="yes"/>
      <point x="657" y="1090"/>
      <point x="631" y="1105"/>
      <point x="580" y="1105" type="curve" smooth="yes"/>
      <point x="524" y="1105"/>
      <point x="500" y="1088"/>
      <point x="495" y="1054" type="curve"/>
    </contour>
    <component base="circumflex.uc"/>
  </outline>
</glyph>
<glyph name="circumflex_tilde.uc" format="2">
  <advance width="538"/>
  <anchor x="268.0" y="740" name="_top"/>
  <outline>
    <contour>
      <point x="347.0" y="978" type="line"/>
      <point x="523.0" y="824" type="line"/>
      <point x="523.0" y="771" type="line"/>
      <point x="443.0" y="771" type="line"/>
      <point x="234.0" y="846" type="line"/>
      <point x="292.0" y="845" type="line"/>
      <point x="89.0" y="771" type="line"/>
      <point x="13.0" y="771" type="line"/>
      <point x="13.0" y="824" type="line"/>
      <point x="190.0" y="978" type="line"/>
    </contour>
    <contour>
      <point x="375" y="1025" type="curve" smooth="yes"/>
      <point x="473" y="1025"/>
      <point x="519" y="1081"/>
      <point x="539" y="1226" type="curve"/>
      <point x="448" y="1239" type="line"/>
      <point x="434" y="1184"/>
      <point x="420" y="1162"/>
      <point x="385" y="1162" type="curve" smooth="yes"/>
      <point x="329" y="1162"/>
      <point x="289" y="1234"/>
      <point x="182" y="1234" type="curve" smooth="yes"/>
      <point x="76" y="1234"/>
      <point x="36" y="1168"/>
      <point x="18" y="1036" type="curve"/>
      <point x="110" y="1024" type="line"/>
      <point x="122" y="1077"/>
      <point x="134" y="1098"/>
      <point x="170" y="1098" type="curve" smooth="yes"/>
      <point x="221" y="1098"/>
      <point x="261" y="1025"/>
    </contour>
  </outline>
</glyph>
<glyph name="eight.den" format="2">
  <advance width="546"/>
  <outline>
    <contour>
      <point x="273" y="232" type="curve" smooth="yes"/>
      <point x="148" y="232"/>
      <point x="40" y="218"/>
      <point x="40" y="121" type="curve" smooth="yes"/>
      <point x="40" y="45"/>
      <point x="101" y="-6"/>
      <point x="273" y="-6" type="curve" smooth="yes"/>
      <point x="445" y="-6"/>
      <point x="506" y="45"/>
      <point x="506" y="121" type="curve" smooth="yes"/>
      <point x="506" y="218"/>
      <point x="399" y="232"/>
    </contour>
    <contour>
      <point x="273" y="56" type="curve" smooth="yes"/>
      <point x="234" y="56"/>
      <point x="212" y="79"/>
      <point x="212" y="129" type="curve" smooth="yes"/>
      <point x="212" y="184"/>
      <point x="233" y="201"/>
      <point x="273" y="201" type="curve" smooth="yes"/>
      <point x="314" y="201"/>
      <point x="335" y="184"/>
      <point x="335" y="129" type="curve" smooth="yes"/>
      <point x="335" y="79"/>
      <point x="313" y="56"/>
    </contour>
    <contour>
      <point x="273" y="432" type="curve" smooth="yes"/>
      <point x="117" y="432"/>
      <point x="60" y="386"/>
      <point x="60" y="318" type="curve" smooth="yes"/>
      <point x="60" y="237"/>
      <point x="160" y="222"/>
      <point x="273" y="222" type="curve" smooth="yes"/>
      <point x="387" y="222"/>
      <point x="486" y="237"/>
      <point x="486" y="318" type="curve" smooth="yes"/>
      <point x="486" y="386"/>
      <point x="430" y="432"/>
    </contour>
    <contour>
      <point x="273" y="250" type="curve" smooth="yes"/>
      <point x="246" y="250"/>
      <point x="221" y="263"/>
      <point x="221" y="308" type="curve" smooth="yes"/>
      <point x="221" y="353"/>
      <point x="241" y="371"/>
      <point x="273" y="371" type="curve" smooth="yes"/>
      <point x="306" y="371"/>
      <point x="325" y="354"/>
      <point x="325" y="312" type="curve" smooth="yes"/>
      <point x="325" y="264"/>
      <point x="300" y="250"/>
    </contour>
  </outline>
</glyph>
<glyph name="five.lintab" format="2">
  <advance width="680"/>
  <outline>
    <contour>
      <point x="324" y="-11" type="curve" smooth="yes"/>
      <point x="167" y="-11"/>
      <point x="80" y="33"/>
      <point x="35" y="135" type="curve"/>
      <point x="146" y="206" type="line"/>
      <point x="173" y="151"/>
      <point x="214" y="119"/>
      <point x="271" y="119" type="curve" smooth="yes"/>
      <point x="335" y="119"/>
      <point x="368" y="151"/>
      <point x="368" y="249" type="curve" smooth="yes"/>
      <point x="368.0" y="336.0"/>
      <point x="333" y="360"/>
      <point x="291" y="360" type="curve" smooth="yes"/>
      <point x="247.0" y="360.0"/>
      <point x="220" y="337"/>
      <point x="200" y="291" type="curve"/>
      <point x="110" y="291" type="line"/>
      <point x="110" y="710" type="line"/>
      <point x="586" y="710" type="line"/>
      <point x="567" y="540" type="line"/>
      <point x="150" y="540" type="line"/>
      <point x="212" y="690" type="line"/>
      <point x="212" y="376" type="line"/>
      <point x="207" y="362"/>
      <point x="200" y="355"/>
      <point x="190" y="355" type="curve"/>
      <point x="215" y="422"/>
      <point x="285" y="475"/>
      <point x="402" y="475" type="curve" smooth="yes"/>
      <point x="551" y="475"/>
      <point x="634" y="397"/>
      <point x="634" y="255" type="curve" smooth="yes"/>
      <point x="634.0" y="75.0"/>
      <point x="525" y="-11"/>
    </contour>
  </outline>
</glyph>
<glyph name="five.oldtab" format="2">
  <advance width="680"/>
  <outline>
    <contour>
      <point x="316" y="-90.0" type="curve" smooth="yes"/>
      <point x="159" y="-90"/>
      <point x="67" y="-46"/>
      <point x="20" y="49" type="curve"/>
      <point x="126" y="118" type="line"/>
      <point x="165" y="49"/>
      <point x="211" y="20"/>
      <point x="275" y="20" type="curve" smooth="yes"/>
      <point x="348.0" y="20.0"/>
      <point x="385" y="60"/>
      <point x="385" y="160" type="curve" smooth="yes"/>
      <point x="385" y="244"/>
      <point x="354" y="275"/>
      <point x="301" y="275.0" type="curve" smooth="yes"/>
      <point x="250" y="275"/>
      <point x="217" y="253"/>
      <point x="195" y="208" type="curve"/>
      <point x="93" y="208" type="line"/>
      <point x="93" y="639.0" type="line"/>
      <point x="578" y="639.0" type="line"/>
      <point x="560" y="469" type="line"/>
      <point x="154" y="469" type="line"/>
      <point x="205" y="569.0" type="line"/>
      <point x="205" y="293" type="line"/>
      <point x="199" y="278"/>
      <point x="188" y="274"/>
      <point x="179" y="284" type="curve"/>
      <point x="207" y="339"/>
      <point x="284" y="390.0"/>
      <point x="391" y="390.0" type="curve" smooth="yes"/>
      <point x="548" y="390"/>
      <point x="634" y="314"/>
      <point x="634" y="164" type="curve" smooth="yes"/>
      <point x="634" y="-12"/>
      <point x="521" y="-90"/>
    </contour>
  </outline>
</glyph>
<glyph name="lslash" format="2">
  <advance width="473"/>
  <outline>
    <contour>
      <point x="25" y="188" type="line"/>
      <point x="463" y="466" type="line"/>
      <point x="463" y="580" type="line"/>
      <point x="25" y="302" type="line"/>
    </contour>
    <component base="l"/>
  </outline>
</glyph>
<glyph name="nine.den" format="2">
  <advance width="540"/>
  <outline>
    <contour>
      <point x="96" y="65" type="line"/>
      <point x="252" y="77"/>
      <point x="320" y="109"/>
      <point x="320" y="241" type="curve" smooth="yes"/>
      <point x="320" y="328"/>
      <point x="307" y="353"/>
      <point x="270" y="353" type="curve" smooth="yes"/>
      <point x="239" y="353"/>
      <point x="220" y="327"/>
      <point x="220" y="285" type="curve" smooth="yes"/>
      <point x="220" y="240"/>
      <point x="234" y="214"/>
      <point x="267" y="214" type="curve" smooth="yes"/>
      <point x="302" y="214"/>
      <point x="322" y="244"/>
      <point x="348" y="302" type="curve"/>
      <point x="351" y="232" type="line"/>
      <point x="328" y="196"/>
      <point x="282" y="140"/>
      <point x="189" y="140" type="curve" smooth="yes"/>
      <point x="91" y="140"/>
      <point x="46" y="190"/>
      <point x="46" y="270" type="curve" smooth="yes"/>
      <point x="46" y="380"/>
      <point x="127" y="431"/>
      <point x="265" y="431" type="curve" smooth="yes"/>
      <point x="397" y="431"/>
      <point x="493" y="383"/>
      <point x="493" y="241" type="curve" smooth="yes"/>
      <point x="493" y="97"/>
      <point x="358" y="-3"/>
      <point x="105" y="-22" type="curve"/>
    </contour>
  </outline>
</glyph>
<glyph name="nine.midprop" format="2">
  <advance width="699"/>
  <outline>
    <contour>
      <point x="91" y="14" type="line"/>
      <point x="324" y="33"/>
      <point x="420" y="145"/>
      <point x="420" y="400" type="curve" smooth="yes"/>
      <point x="420" y="572"/>
      <point x="385" y="601"/>
      <point x="341" y="601" type="curve" smooth="yes"/>
      <point x="301" y="601"/>
      <point x="272" y="568"/>
      <point x="272" y="451" type="curve" smooth="yes"/>
      <point x="272" y="348"/>
      <point x="299" y="314"/>
      <point x="347" y="314" type="curve" smooth="yes"/>
      <point x="386" y="314"/>
      <point x="417" y="333"/>
      <point x="452" y="398" type="curve"/>
      <point x="459" y="338" type="line"/>
      <point x="416" y="271"/>
      <point x="344" y="221"/>
      <point x="240" y="221" type="curve" smooth="yes"/>
      <point x="110" y="221"/>
      <point x="28" y="284"/>
      <point x="28" y="437" type="curve" smooth="yes"/>
      <point x="28" y="620"/>
      <point x="153" y="694"/>
      <point x="351" y="694" type="curve" smooth="yes"/>
      <point x="539.0" y="694.0"/>
      <point x="662" y="618"/>
      <point x="662" y="389" type="curve" smooth="yes"/>
      <point x="662" y="124"/>
      <point x="486" y="-53"/>
      <point x="106" y="-89" type="curve"/>
    </contour>
  </outline>
</glyph>
<glyph name="nine.oldprop" format="2">
  <advance width="699"/>
  <outline>
    <contour>
      <point x="87" y="-25" type="line"/>
      <point x="320" y="-6"/>
      <point x="428" y="100"/>
      <point x="428" y="355" type="curve" smooth="yes"/>
      <point x="428" y="516"/>
      <point x="385" y="539"/>
      <point x="341" y="539" type="curve" smooth="yes"/>
      <point x="301" y="539"/>
      <point x="262" y="512"/>
      <point x="262" y="406" type="curve" smooth="yes"/>
      <point x="262" y="304"/>
      <point x="299" y="276"/>
      <point x="347" y="276" type="curve" smooth="yes"/>
      <point x="386" y="276"/>
      <point x="418" y="294"/>
      <point x="452" y="353" type="curve"/>
      <point x="459" y="293" type="line"/>
      <point x="416" y="226"/>
      <point x="344" y="171"/>
      <point x="240" y="171" type="curve" smooth="yes"/>
      <point x="110" y="171"/>
      <point x="28" y="239"/>
      <point x="28" y="392" type="curve" smooth="yes"/>
      <point x="28" y="575"/>
      <point x="153" y="649"/>
      <point x="351" y="649" type="curve" smooth="yes"/>
      <point x="539" y="649"/>
      <point x="662" y="573"/>
      <point x="662" y="344" type="curve" smooth="yes"/>
      <point x="662" y="79"/>
      <point x="482" y="-99"/>
      <point x="102" y="-135" type="curve"/>
    </contour>
  </outline>
</glyph>
<glyph name="one.lintab" format="2">
  <advance width="680"/>
  <outline>
    <contour>
      <point x="468" y="152" type="curve" smooth="yes"/>
      <point x="468" y="710" type="line"/>
      <point x="260" y="710" type="line"/>
      <point x="224" y="663"/>
      <point x="174" y="635"/>
      <point x="50" y="633" type="curve"/>
      <point x="50" y="453" type="line"/>
      <point x="156" y="452"/>
      <point x="219" y="515"/>
      <point x="246" y="634" type="curve"/>
      <point x="205" y="629" type="line"/>
      <point x="205" y="152" type="line" smooth="yes"/>
      <point x="205" y="112"/>
      <point x="159.0" y="105.0"/>
      <point x="94" y="105" type="curve" smooth="yes"/>
      <point x="74" y="105" type="line"/>
      <point x="74" y="0" type="line"/>
      <point x="579" y="0" type="line"/>
      <point x="579" y="105" type="line"/>
      <point x="564" y="105" type="line" smooth="yes"/>
      <point x="508.0" y="105.0"/>
      <point x="468" y="112"/>
    </contour>
  </outline>
</glyph>
<glyph name="seven.linprop" format="2">
  <advance width="708"/>
  <outline>
    <contour>
      <point x="293" y="512" type="line" smooth="yes"/>
      <point x="221" y="512"/>
      <point x="192" y="505"/>
      <point x="188" y="469" type="curve" smooth="yes"/>
      <point x="181" y="402" type="line"/>
      <point x="48" y="402" type="line"/>
      <point x="48" y="710" type="line"/>
      <point x="677" y="710" type="line"/>
      <point x="677" y="532" type="line"/>
      <point x="563" y="416"/>
      <point x="474" y="329"/>
      <point x="475" y="0" type="curve"/>
      <point x="158" y="0" type="line"/>
      <point x="179" y="311"/>
      <point x="489" y="492"/>
      <point x="611" y="559" type="curve"/>
      <point x="630" y="512" type="line"/>
    </contour>
  </outline>
</glyph>
<glyph name="six.den" format="2">
  <advance width="540"/>
  <outline>
    <contour>
      <point x="443" y="360" type="line"/>
      <point x="287" y="348"/>
      <point x="219" y="316"/>
      <point x="219" y="184" type="curve" smooth="yes"/>
      <point x="219" y="97"/>
      <point x="232" y="72"/>
      <point x="269" y="72" type="curve" smooth="yes"/>
      <point x="300" y="72"/>
      <point x="319" y="98"/>
      <point x="319" y="140" type="curve" smooth="yes"/>
      <point x="319" y="185"/>
      <point x="305" y="211"/>
      <point x="272" y="211" type="curve" smooth="yes"/>
      <point x="237" y="211"/>
      <point x="217" y="181"/>
      <point x="191" y="123" type="curve"/>
      <point x="188" y="193" type="line"/>
      <point x="211" y="229"/>
      <point x="257" y="285"/>
      <point x="350" y="285" type="curve" smooth="yes"/>
      <point x="448" y="285"/>
      <point x="493" y="235"/>
      <point x="493" y="155" type="curve" smooth="yes"/>
      <point x="493" y="45"/>
      <point x="412" y="-6"/>
      <point x="274" y="-6" type="curve" smooth="yes"/>
      <point x="142" y="-6"/>
      <point x="46" y="42"/>
      <point x="46" y="184" type="curve" smooth="yes"/>
      <point x="46" y="328"/>
      <point x="181" y="428"/>
      <point x="434" y="447" type="curve"/>
    </contour>
  </outline>
</glyph>
<glyph name="tilde.uc" format="2">
  <advance width="538"/>
  <anchor x="269.5" y="740" name="_top"/>
  <outline>
    <contour>
      <point x="366.0" y="768" type="curve" smooth="yes"/>
      <point x="466.0" y="768"/>
      <point x="514.0" y="830"/>
      <point x="537.0" y="998" type="curve"/>
      <point x="443.0" y="1010" type="line"/>
      <point x="430.0" y="949"/>
      <point x="416.0" y="916"/>
      <point x="381.0" y="916" type="curve" smooth="yes"/>
      <point x="318.0" y="916"/>
      <point x="280.0" y="1005"/>
      <point x="171.0" y="1005" type="curve" smooth="yes"/>
      <point x="64.0" y="1005"/>
      <point x="22.0" y="933"/>
      <point x="2.0" y="779" type="curve"/>
      <point x="96.0" y="767" type="line"/>
      <point x="106.0" y="826"/>
      <point x="117.0" y="859"/>
      <point x="155.0" y="859" type="curve" smooth="yes"/>
      <point x="211.0" y="859"/>
      <point x="247.0" y="768"/>
    </contour>
  </outline>
</glyph>
<glyph name="two.midprop" format="2">
  <advance width="673"/>
  <outline>
    <contour>
      <point x="389" y="157" type="line" smooth="yes"/>
      <point x="473" y="157"/>
      <point x="499" y="159"/>
      <point x="509" y="196" type="curve" smooth="yes"/>
      <point x="522" y="246" type="line"/>
      <point x="634" y="246" type="line"/>
      <point x="634" y="0" type="line"/>
      <point x="31" y="0" type="line"/>
      <point x="31" y="202" type="line"/>
      <point x="251" y="298"/>
      <point x="376" y="345"/>
      <point x="376" y="489" type="curve" smooth="yes"/>
      <point x="376.0" y="567.0"/>
      <point x="345" y="595"/>
      <point x="267" y="595" type="curve" smooth="yes"/>
      <point x="227.0" y="595.0"/>
      <point x="184" y="583"/>
      <point x="155" y="573" type="curve"/>
      <point x="142" y="583"/>
      <point x="175" y="611"/>
      <point x="214" y="615" type="curve"/>
      <point x="214" y="448" type="line"/>
      <point x="44" y="448" type="line"/>
      <point x="44" y="630" type="line"/>
      <point x="107" y="658"/>
      <point x="207" y="694"/>
      <point x="348" y="694" type="curve" smooth="yes"/>
      <point x="549" y="694"/>
      <point x="626" y="609"/>
      <point x="626" y="506" type="curve" smooth="yes"/>
      <point x="626.0" y="306.0"/>
      <point x="355" y="239"/>
      <point x="83" y="140" type="curve"/>
      <point x="72" y="140"/>
      <point x="66" y="150"/>
      <point x="72" y="157" type="curve"/>
    </contour>
  </outline>
</glyph>
<glyph name="uni20B8.proportional" format="2">
  <advance width="854"/>
  <outline>
    <contour>
      <point x="50" y="751" type="line"/>
      <point x="50" y="649" type="line"/>
      <point x="804" y="649" type="line"/>
      <point x="804" y="751" type="line"/>
    </contour>
    <contour>
      <point x="53" y="547" type="line"/>
      <point x="53" y="289" type="line"/>
      <point x="161" y="289" type="line"/>
      <point x="177" y="395" type="line" smooth="yes"/>
      <point x="182" y="431"/>
      <point x="201.0" y="448.0"/>
      <point x="264" y="448" type="curve" smooth="yes"/>
      <point x="295" y="448" type="line"/>
      <point x="295" y="141" type="line" smooth="yes"/>
      <point x="295.0" y="112.0"/>
      <point x="267" y="105"/>
      <point x="233" y="105" type="curve" smooth="yes"/>
      <point x="213" y="105" type="line"/>
      <point x="213" y="0" type="line"/>
      <point x="640" y="0" type="line"/>
      <point x="640" y="105" type="line"/>
      <point x="620" y="105" type="line" smooth="yes"/>
      <point x="587" y="105"/>
      <point x="558.0" y="112.0"/>
      <point x="558" y="141" type="curve" smooth="yes"/>
      <point x="558" y="448" type="line"/>
      <point x="589" y="448" type="line" smooth="yes"/>
      <point x="652.0" y="448.0"/>
      <point x="672" y="431"/>
      <point x="677" y="395" type="curve" smooth="yes"/>
      <point x="693" y="289" type="line"/>
      <point x="800" y="289" type="line"/>
      <point x="800" y="547" type="line"/>
    </contour>
  </outline>
</glyph>
<glyph name="yen.proportional" format="2">
  <advance width="776"/>
  <outline>
    <contour>
      <point x="83" y="400" type="line"/>
      <point x="83" y="318" type="line"/>
      <point x="692" y="318" type="line"/>
      <point x="692" y="400" type="line"/>
    </contour>
    <contour>
      <point x="83" y="243" type="line"/>
      <point x="83" y="161" type="line"/>
      <point x="692" y="161" type="line"/>
      <point x="692" y="243" type="line"/>
    </contour>
    <contour>
      <point x="269" y="374" type="line"/>
      <point x="269" y="141" type="line" smooth="yes"/>
      <point x="269" y="112"/>
      <point x="241" y="105"/>
      <point x="207" y="105" type="curve" smooth="yes"/>
      <point x="184" y="105" type="line"/>
      <point x="184" y="0" type="line"/>
      <point x="592" y="0" type="line"/>
      <point x="592" y="105" type="line"/>
      <point x="568" y="105" type="line" smooth="yes"/>
      <point x="535" y="105"/>
      <point x="507" y="112"/>
      <point x="507" y="141" type="curve" smooth="yes"/>
      <point x="507" y="374" type="line"/>
    </contour>
    <contour>
      <point x="507" y="328" type="line"/>
      <point x="671" y="563" type="line" smooth="yes"/>
      <point x="691" y="592"/>
      <point x="707" y="605"/>
      <point x="730" y="605" type="curve" smooth="yes"/>
      <point x="746" y="605" type="line"/>
      <point x="746" y="710" type="line"/>
      <point x="500" y="710" type="line"/>
      <point x="500" y="605" type="line"/>
      <point x="505" y="605" type="line" smooth="yes"/>
      <point x="534" y="605"/>
      <point x="563" y="600"/>
      <point x="563" y="587" type="curve"/>
      <point x="414" y="370" type="line"/>
      <point x="489" y="370" type="line"/>
      <point x="333" y="594" type="line"/>
      <point x="333" y="601"/>
      <point x="350" y="605"/>
      <point x="378" y="605" type="curve" smooth="yes"/>
      <point x="388" y="605" type="line"/>
      <point x="388" y="710" type="line"/>
      <point x="30" y="710" type="line"/>
      <point x="30" y="605" type="line"/>
      <point x="37" y="605" type="line" smooth="yes"/>
      <point x="58.0" y="605.0"/>
      <point x="70" y="602"/>
      <point x="88" y="576" type="curve" smooth="yes"/>
      <point x="264" y="329" type="line"/>
    </contour>
  </outline>
</glyph>
<glyph name="zero.den" format="2">
  <advance width="567"/>
  <outline>
    <contour>
      <point x="283" y="432" type="curve" smooth="yes"/>
      <point x="143" y="432"/>
      <point x="37" y="363"/>
      <point x="37" y="214" type="curve" smooth="yes"/>
      <point x="37" y="64"/>
      <point x="143" y="-5"/>
      <point x="283" y="-5" type="curve" smooth="yes"/>
      <point x="424" y="-5"/>
      <point x="530" y="64"/>
      <point x="530" y="214" type="curve" smooth="yes"/>
      <point x="530" y="363"/>
      <point x="424" y="432"/>
    </contour>
    <contour>
      <point x="283" y="82" type="curve" smooth="yes"/>
      <point x="247" y="82"/>
      <point x="220" y="106"/>
      <point x="220" y="214" type="curve" smooth="yes"/>
      <point x="220" y="321"/>
      <point x="247" y="345"/>
      <point x="283" y="345" type="curve" smooth="yes"/>
      <point x="320" y="345"/>
      <point x="347" y="321"/>
      <point x="347" y="214" type="curve" smooth="yes"/>
      <point x="347" y="106"/>
      <point x="320" y="82"/>
    </contour>
  </outline>
</glyph>
<glyph name="zero.midprop" format="2">
  <advance width="801"/>
  <outline>
    <contour>
      <point x="401" y="-11" type="curve" smooth="yes"/>
      <point x="621" y="-11"/>
      <point x="761" y="108"/>
      <point x="761" y="341" type="curve" smooth="yes"/>
      <point x="761" y="574"/>
      <point x="621" y="694"/>
      <point x="401" y="694" type="curve" smooth="yes"/>
      <point x="180" y="694"/>
      <point x="40" y="574"/>
      <point x="40" y="341" type="curve" smooth="yes"/>
      <point x="40" y="108"/>
      <point x="180" y="-11"/>
    </contour>
    <contour>
      <point x="401" y="99" type="curve" smooth="yes"/>
      <point x="320" y="99"/>
      <point x="289" y="167"/>
      <point x="289" y="341" type="curve" smooth="yes"/>
      <point x="289.0" y="515.0"/>
      <point x="320" y="584"/>
      <point x="401" y="584" type="curve" smooth="yes"/>
      <point x="481" y="584"/>
      <point x="512" y="515"/>
      <point x="512" y="341" type="curve" smooth="yes"/>
      <point x="512.0" y="167.0"/>
      <point x="481" y="99"/>
    </contour>
  </outline>
</glyph>
<glyph name="zero.propslash" format="2">
  <advance width="738"/>
  <outline>
    <contour>
      <point x="218.5" y="130.0" type="line"/>
      <point x="544.5" y="408.0" type="line"/>
      <point x="521.5" y="508.0" type="line"/>
      <point x="193.5" y="226.0" type="line"/>
    </contour>
    <contour>
      <point x="369.0" y="-11.0" type="curve" smooth="yes"/>
      <point x="566.0" y="-11.0"/>
      <point x="697.0" y="87.0"/>
      <point x="697.0" y="319.0" type="curve" smooth="yes"/>
      <point x="697.0" y="551.0"/>
      <point x="566.0" y="649.0"/>
      <point x="369.0" y="649.0" type="curve" smooth="yes"/>
      <point x="172.0" y="649.0"/>
      <point x="41.0" y="551.0"/>
      <point x="41.0" y="319.0" type="curve" smooth="yes"/>
      <point x="41.0" y="87.0"/>
      <point x="172.0" y="-11.0"/>
    </contour>
    <contour>
      <point x="369.0" y="99.0" type="curve" smooth="yes"/>
      <point x="312.0" y="99.0"/>
      <point x="291.0" y="145.0"/>
      <point x="291.0" y="319.0" type="curve" smooth="yes"/>
      <point x="291.0" y="493.0"/>
      <point x="312.0" y="539.0"/>
      <point x="369.0" y="539.0" type="curve" smooth="yes"/>
      <point x="426.0" y="539.0"/>
      <point x="447.0" y="493.0"/>
      <point x="447.0" y="319.0" type="curve" smooth="yes"/>
      <point x="447.0" y="145.0"/>
      <point x="426.0" y="99.0"/>
    </contour>
  </outline>
</glyph>
<glyph name="zero.slashlin" format="2">
  <advance width="680"/>
  <outline>
    <contour>
      <point x="191.0" y="132" type="line"/>
      <point x="514.0" y="493" type="line"/>
      <point x="492.0" y="592" type="line"/>
      <point x="166.0" y="228" type="line"/>
    </contour>
    <contour>
      <point x="340.0" y="-11" type="curve" smooth="yes"/>
      <point x="542.0" y="-11"/>
      <point x="655.0" y="100"/>
      <point x="655.0" y="362" type="curve" smooth="yes"/>
      <point x="655.0" y="624"/>
      <point x="542.0" y="735"/>
      <point x="340.0" y="735" type="curve" smooth="yes"/>
      <point x="138.0" y="735"/>
      <point x="25.0" y="624"/>
      <point x="25.0" y="362" type="curve" smooth="yes"/>
      <point x="25.0" y="100"/>
      <point x="138.0" y="-11"/>
    </contour>
    <contour>
      <point x="340.0" y="108" type="curve" smooth="yes"/>
      <point x="290.0" y="108"/>
      <point x="275.0" y="155"/>
      <point x="275.0" y="362" type="curve" smooth="yes"/>
      <point x="275.0" y="569"/>
      <point x="290.0" y="616"/>
      <point x="340.0" y="616" type="curve" smooth="yes"/>
      <point x="391.0" y="616"/>
      <point x="405.0" y="569"/>
      <point x="405.0" y="362" type="curve" smooth="yes"/>
      <point x="405.0" y="155"/>
      <point x="391.0" y="108"/>
    </contour>
  </outline>
</glyph>
